<svg width="512" height="512" viewBox="0 0 512 512" fill="none" xmlns="http://www.w3.org/2000/svg">
  <defs>
    <radialGradient id="tileGrad" cx="50%" cy="0%" r="100%" fx="50%" fy="0%">
      <stop offset="0%" stop-color="#2D2D35"/>
      <stop offset="100%" stop-color="#18181B"/>
    </radialGradient>

    <filter id="symbolShadow" x="-20%" y="-20%" width="140%" height="150%">
      <feFlood flood-color="#000000" flood-opacity="0.5"/>
      <feComposite in2="SourceGraphic" operator="in"/>
      <feOffset dx="0" dy="12"/>
      <feGaussianBlur stdDeviation="4"/>
      <feComposite in2="SourceGraphic" operator="over"/>
    </filter>
  </defs>

  <rect width="512" height="512" rx="115" fill="url(#tileGrad)"/>

  <g transform="translate(256, 250)" filter="url(#symbolShadow)">

    <g>
      <path d="M -130 140 L -70 140 L -25 -100 L -85 -100 Z" fill="#3B82F6"/>
      <path d="M -130 140 L -115 140 L -75 -100 L -85 -100 Z" fill="white" opacity="0.25"/>
      <path d="M -85 -100 L -25 -100 L -30 -90 L -80 -90 Z" fill="white" opacity="0.4"/>
    </g>

    <g>
      <path d="M 130 140 L 70 140 L 25 -100 L 85 -100 Z" fill="#A855F7"/>
       <path d="M 25 -100 L 85 -100 L 80 -90 L 30 -90 Z" fill="white" opacity="0.4"/>
    </g>

    <g>
      <path d="M 0 -120 L 35 -20 L 65 -20 L 20 -140 L -20 -140 L -65 -20 L -35 -20 Z" fill="#00E5FF"/>
      
      <path d="M 0 -120 L 20 -140 L -20 -140 Z" fill="white" opacity="0.6"/> <path d="M -65 -20 L -35 -20 L 0 -90 L 35 -20 L 65 -20 L 60 -30 L 30 -30 L 0 -110 L -30 -30 L -60 -30 Z" fill="white" opacity="0.3"/> </g>

  </g>
</svg>